<svg width="15" height="15" fill="none" xmlns="http://www.w3.org/2000/svg"><path d="M15 7.5a7.5 7.5 0 1 0-15 0 7.5 7.5 0 0 0 15 0z" fill="#00AFCA"/><path fill-rule="evenodd" clip-rule="evenodd" d="M7.505 4.03c.14 0 .193-.09.193-.196 0-.142-.193-.82-.193-.82s-.192.678-.192.82c0 .107.052.197.192.197zm.523.054c.137.026.206-.051.227-.156.027-.14-.032-.841-.032-.841s-.32.625-.346.765c-.02.105.014.204.15.232zm.5.154c.13.053.213-.01.253-.107.054-.131.13-.832.13-.832s-.432.55-.486.682c-.04.099-.025.203.104.257h-.001zm.732.196c-.058.088-.15.133-.268.055-.116-.08-.11-.184-.052-.272.078-.12.608-.573.608-.573s-.21.672-.288.79zm.138.393c.1.1.2.074.273 0 .1-.101.435-.718.435-.718s-.608.34-.707.44c-.074.076-.1.178 0 .278h-.001zm.6.465c-.087.06-.19.064-.268-.053-.078-.118-.033-.213.055-.272.116-.08.777-.292.777-.292s-.448.538-.564.617zm-.02.417c.055.13.155.146.252.105.13-.055.672-.494.672-.494s-.69.078-.82.133c-.096.04-.158.124-.104.256zm.38.663c-.103.02-.2-.015-.228-.154-.027-.14.05-.21.153-.23.138-.028.83.032.83.032s-.617.324-.755.352zm-.177.377c.002.142.09.195.195.195.14 0 .806-.196.806-.196s-.667-.195-.806-.195c-.106 0-.195.053-.195.196zm.102.76c-.103-.021-.178-.09-.153-.23.027-.14.125-.175.228-.154.138.028.754.352.754.352s-.692.06-.83.032zm-.305.279c-.052.132.01.215.106.256.13.054.82.133.82.133s-.543-.44-.673-.494c-.097-.04-.2-.026-.253.105zm-.193.742c-.087-.06-.13-.153-.055-.272.078-.118.182-.112.27-.053.115.079.563.617.563.617S9.9 8.61 9.785 8.53zm-.386.14c-.098.1-.074.202 0 .277.1.1.708.44.708.44s-.336-.616-.435-.716c-.074-.076-.175-.102-.273-.002zm-.458.61c-.06-.088-.064-.192.052-.272.116-.08.21-.034.268.055.077.118.288.79.288.79s-.53-.455-.608-.573zm-.412-.021c-.128.056-.143.158-.103.257.053.13.487.682.487.682s-.078-.7-.132-.832c-.04-.098-.122-.162-.252-.107zM5.75 9.063c.058-.09.15-.133.268-.055.117.078.11.184.052.272-.077.118-.608.573-.608.573s.21-.672.288-.79zm-.138-.394c-.1-.1-.2-.074-.274.002-.1.1-.434.717-.434.717s.607-.34.706-.44c.075-.076.1-.178.002-.28zm-.602-.464c.087-.06.19-.065.268.053.078.118.033.213-.054.272-.117.079-.778.292-.778.292s.447-.538.564-.617zm.022-.417c-.055-.13-.156-.146-.253-.105-.13.054-.672.494-.672.494s.69-.08.82-.133c.096-.04.158-.125.105-.256zm-.38-.663c.102-.02.198.014.227.154.028.139-.05.209-.153.23-.137.027-.83-.032-.83-.032s.619-.324.756-.352zm.176-.377c-.001-.142-.09-.195-.194-.195-.14 0-.807.196-.807.196s.667.195.807.195c.105 0 .194-.053.194-.196zm-.102-.76c.103.02.179.09.153.23-.027.14-.125.174-.228.154-.137-.028-.754-.352-.754-.352s.69-.06.829-.032zm.306-.28c.052-.132-.01-.215-.106-.255-.13-.055-.82-.133-.82-.133s.543.44.673.494c.097.04.2.025.253-.106zm.192-.741c.087.059.13.153.054.272-.077.118-.18.112-.268.053-.117-.08-.564-.618-.564-.618s.66.214.778.293zm.388-.14c.098-.101.073-.202-.002-.277-.1-.101-.706-.442-.706-.442s.335.618.434.718c.075.075.175.102.274 0zm1.89 4.316c1.3 0 2.356-1.07 2.356-2.392 0-1.32-1.055-2.391-2.356-2.391S5.147 5.43 5.147 6.75c0 1.322 1.055 2.393 2.356 2.393zm.374.502c-.02-.105.014-.202.15-.232.139-.028.208.05.228.156.027.14-.031.84-.031.84s-.32-.625-.347-.764zm-.372-.18c-.14.002-.192.09-.192.197 0 .143.192.82.192.82s.193-.677.193-.82c0-.106-.053-.197-.193-.197zm-.748.104c.02-.105.09-.182.227-.156.137.028.17.127.15.232-.026.14-.345.765-.345.765s-.06-.702-.032-.841zm-.276-.31c-.13-.053-.212.009-.252.107-.053.13-.13.832-.13.832s.432-.55.486-.682c.04-.1.026-.203-.104-.257zm-.41-5.042c.059.088.064.192-.052.273-.116.078-.21.032-.268-.056-.078-.118-.288-.79-.288-.79s.53.455.608.573zm.41.02c.129-.055.144-.157.104-.256-.054-.13-.487-.681-.487-.681s.078.7.13.83c.04.099.124.163.253.108zm.654-.385c.02.105-.014.202-.151.232-.138.027-.206-.051-.227-.156-.027-.14.032-.841.032-.841s.319.625.346.765z" fill="#FEC50C"/><path fill-rule="evenodd" clip-rule="evenodd" d="M9.781 12.558l-.059.009-.023-.005-.045-.014-.04-.022-.154-.083-.04.087-.055.11-.054.065-.018.013-.023.01-.08-.037-.019-.032-.01-.023-.008-.041-.005-.028-.027.023-.077.11-.103.105-.023.01-.027.009-.13-.073-.06-.065-.04.065-.199.146-.05-.027-.028-.051-.03-.096-.01-.018-.009-.01h-.009l-.122.202-.049.032-.073.019-.099-.037v-.018l.018-.202-.013.004-.055.037-.036.041-.04.046-.04.05-.05.042-.073.05h-.087l-.013-.022v-.014l.005-.06.01-.06.003-.032-.009-.055-.018-.032-.027.042-.045.06-.054.059-.059.06-.063.045-.027.01-.023.009-.054-.087.005-.175-.114.078-.234.129-.158.004.013-.036.045-.092.036-.055.046-.046.05-.037.058-.037.06-.027.067-.023.067-.018.077-.014.077-.014.077-.009.167-.01.172-.004h.343l.167-.009.158-.014.077-.013.2-.06.057-.028.1-.073.04-.05-.045-.092.036-.005.104-.05.05-.106-.009-.018.077-.014.081-.009.176-.005.186.01.19.014.194.022.19.019.184.018.172.01v.063l-.023.083-.04.064-.072.06-.086.028-.1.004-.14-.041-.045-.023-.072-.069v.078l-.014.1-.099.166zm-3.6-.444l.103.045.063-.05c.052-.018.043.053.1.054a.066.066 0 0 0 .056-.033.067.067 0 0 0-.024-.089l.257-.111.1-.055.04-.028.398-.266.122-.105.122-.115.117-.079.258-.091.361-.073.316-.041.163-.019.158-.027.104-.023.108-.028.054-.068.213-.211.077-.06.225-.142.574-.289.312-.174.023-.07.071-.137.05-.068.123-.147.162-.17.167-.147.091-.064.1-.055.05-.023.31-.05.05.009-.005.055-.085.229-.09.124-.06.064.086-.014.064-.023.15.005v.032l-.047.115-.135.137-.095.088.054.004.06.018.058.019.045.009-.054.041-.064.042-.42.275.032.004.04.019.02.004.017.01.013.004.014-.005-.09.05-.235.125-.027.059.008.014.02.06-.272.128-.027.014.09.092-.27.092.04.174-.172.128-.104.069-.253.137-.072.028-.077.027-.08.028-.087.018-.09.019-.095.013.311.005.258-.028.113-.022.1-.028.193-.074.127-.06.24-.141.121-.074-.072-.036-.072-.023-.113-.051-.04-.022.035-.028.145-.051.108-.023.113-.013.1-.014.158-.028.018-.009.013-.013-.013-.014-.014-.005-.018-.009-.05-.01-.244-.036-.036-.014.244-.055.11-.023.265-.087.023-.014.022-.013.018-.019-.013-.013-.018-.005-.023-.005-.059-.004-.207-.009-.06-.01-.035-.009.031-.013.032-.014.456-.138.086-.036.04-.023.037-.023.04-.046.005-.014-.005-.014-.013-.009-.014-.004h-.126l-.059.004h-.08l-.024-.004-.018-.01-.018-.009.18-.119.63-.481.048-.101.014-.055-.099-.042-.262.152-.23.032.108-.083.122-.105.14-.124.14-.138.14-.146.19-.225.163-.234-.177-.078-.1.096-.519.496-.054.036-.149.083.031-.028.154-.165.131-.16.352-.486.16-.275.035-.079.022-.137-.018-.027-.023-.014-.122-.024-.049.019-.086.092-.262.381-.276.344-.063.055.081-.152.082-.174.126-.293.068-.207.032-.101.05-.298-.009-.22-.014-.055-.01-.014-.117-.046-.036.009-.018.015-.004.013-.046.151-.04.152-.08.316-.096.303-.095.207-.04.059.026-.133.018-.12.036-.298.005-.078-.009-.119-.01-.046-.053-.078-.04-.009-.015.005-.036.009-.036.018-.099.422-.136.385-.117.266-.09.175-.05.087-.158.252-.118.165-.22.266-.24.248-.127.119-.13.11-.137.105-.14.101-.095.064-.099.065-.199.119-.158.073-.158.074-.163.06-.298.1-.135.042-.28.064-.14.023-.145.018-.14.018-.199.033-.03.022-.439.468-.1.101-.117.092-.045.032-.146.073-.108.046-.31.119-.04.019-.106.059-.05.05-.027.097v.001zm1.242-1.189l-.334-.023-.487-.073-.475-.128-.325-.124-.154-.074-.258-.133-.297-.183-.406-.316-.249-.239-.339-.394-.226-.33-.145-.262-.108-.22-.149-.39-.077-.261-.063-.289-.073-.032-.077.023-.03.064-.019.165.014.165.045.331.027.132-.077-.128-.153-.44-.186-.647-.013-.004-.059-.005-.063.023-.023.023-.027.109-.009.088.014.188.04.202.14.408.086.192.163.326-.063-.055-.059-.06-.109-.138-.203-.288-.166-.239-.087-.091-.032-.014-.08-.005-.06.019-.045.096.064.165.1.174.125.197.14.202.145.188.19.23.131.119-.104-.046-.104-.069-.217-.188-.398-.403-.058-.023-.072.009-.04.033v.077l.094.142.117.151.271.294.402.367.11.082h-.154l-.077-.032-.303-.165-.069-.004.01.059.09.147.09.087.402.252.167.082.253.111-.08.023-.485-.014.027.041.222.124.311.051.163.045-.018.014-.339.083-.04.01-.005.022.1.05.234.042.222.041-.09.032-.208.069-.014.004-.005.005v.005l.172.077.276.065.135.023-.289.1.19.074.406.174.334.138.366.115.262.05.136.018.145.014-.073-.014-.08-.023-.19-.055-.222-.073-.443-.17-.42-.197-.045-.032.231-.151-.43-.133-.04-.037.15-.12-.123-.05-.159-.055.014-.11.06-.05-.155-.088.014-.138v-.017l-.014-.014-.217-.078-.059-.037-.202-.156.234-.023-.366-.389h.244l-.022-.124-.1-.212-.113-.16.063-.023.177.051.054-.115.013-.004.068.05.181.151.204.211.414.536.276.271.163.11.194.083.226.073.601.537.1.069.148.064.303.051.312.013.235.023.284.078.176.119.177-.344zm.49 1.403l-.078-.009h-.343l-.086-.009-.08-.009-.074-.018-.036-.014-.036-.018-.112.036h-.082l-.113-.032.1-.119.036-.041-.11-.023.11-.082.054-.042.022-.018-.054.004-.063.01-.28.068-.064.01-.054.004a.212.212 0 0 1 0 .092.124.124 0 0 1-.06.067.121.121 0 0 1-.139-.021.26.26 0 0 1-.094.009.407.407 0 0 1-.095-.042l-.104.065-.077.101-.009.101.027.091.018-.046.068-.045.09-.033-.027.092.095-.042.077-.017.19-.024.23-.018.38-.009.248.005.23.004.19.014h.06l.071-.014.01-.005h.01v-.004l-.01-.005-.037-.013v-.001z" fill="#FEC50C"/></svg>