<svg width="15" height="16" viewBox="0 0 15 16" fill="none" xmlns="http://www.w3.org/2000/svg">
<path fill-rule="evenodd" clip-rule="evenodd" d="M14.5732 10.5742C13.5436 13.4872 10.7655 15.5742 7.49999 15.5742C4.23445 15.5742 1.45635 13.4872 0.426758 10.5742H14.5732Z" fill="#D90012"/>
<path fill-rule="evenodd" clip-rule="evenodd" d="M14.5732 10.5742C14.8496 9.79227 15 8.95081 15 8.07422C15 7.19763 14.8496 6.35617 14.5732 5.57422H0.426764C0.150386 6.35617 0 7.19763 0 8.07422C0 8.95081 0.150386 9.79227 0.426764 10.5742H14.5732Z" fill="#0033A0"/>
<path fill-rule="evenodd" clip-rule="evenodd" d="M14.5732 5.57422H0.426758C1.45635 2.66124 4.23445 0.574219 7.49999 0.574219C10.7655 0.574219 13.5436 2.66124 14.5732 5.57422Z" fill="#F8F8F8"/>
</svg>
